<?xml version="1.0" encoding="utf-8"?>
<!-- Generator: Adobe Illustrator 16.0.0, SVG Export Plug-In . SVG Version: 6.00 Build 0)  -->
<!DOCTYPE svg PUBLIC "-//W3C//DTD SVG 1.1//EN" "http://www.w3.org/Graphics/SVG/1.1/DTD/svg11.dtd">
<svg version="1.1" id="Layer_1" xmlns="http://www.w3.org/2000/svg" xmlns:xlink="http://www.w3.org/1999/xlink" x="0px" y="0px"
	 width="500px" height="250px" viewBox="0 0 500 250" enable-background="new 0 0 500 250" xml:space="preserve">
<path display="none" fill-rule="evenodd" clip-rule="evenodd" fill="#121317" d="M34.208,146.992
	c-0.001-20.993-0.002-41.987-0.003-62.98c0.349-0.57,0.698-1.14,1.047-1.71c18.674,0.028,37.347,0.055,56.021,0.083
	c0.462,0.498,0.924,0.995,1.386,1.492c3.503,5.383,7.007,10.767,10.791,16.581c3.4-5.458,6.362-10.61,9.776-15.443
	c1.012-1.433,3.291-2.782,4.998-2.792c27.158-0.169,54.318-0.204,81.477-0.064c10.064,0.052,18.667,3.175,23.245,13.758
	c7.204-9.106,16.107-14.621,27.652-15.238c11.361-0.608,20.751,3.446,28.849,12.685c0-4.129,0-7.344,0-11.828
	c13.665,0.623,26.941,0.524,40.021,2.083c7.978,0.952,13.224,6.969,14.676,15.152c1.702,9.594-0.206,18.256-8.149,24.781
	c-1.142,0.937-2.463,1.654-4.112,2.746c2.455,3.366,4.818,6.607,7.604,10.427c7.158-17.307,14.115-33.797,20.741-50.419
	c1.353-3.392,3.076-4.339,6.566-4.29c12.941,0.182,12.937,0.057,17.856,11.881c3.577,8.596,7.174,17.185,10.777,25.77
	c0.045,0.106,0.298,0.124,0.979,0.381c1.087-10.432,2.159-20.73,3.231-31.028c0.171-1.352,0.341-2.705,0.512-4.057
	c0.879-0.954,1.728-2.695,2.643-2.73c5.143-0.198,10.301,0.014,15.453,0.087c0.417,0.531,0.834,1.061,1.251,1.592
	c5.036,12.202,10.071,24.404,15.356,37.21c5.033-12.364,9.866-24.234,14.698-36.105c0.577-0.893,1.154-1.787,1.731-2.68
	c5.654-0.018,11.31-0.036,16.964-0.053c0.541,1.913,1.082,3.825,1.622,5.737c1.965,19.859,3.931,39.719,5.928,59.901
	c-6.441,0-12.511,0-18.881,0c-1.012-9.977-2.017-19.888-3.021-29.799c-0.531-0.004-1.063-0.008-1.593-0.012
	c-2.701,8.501-5.526,16.965-8.041,25.521c-0.959,3.259-2.154,4.81-6.036,4.706c-11.371-0.302-11.375-0.075-14.841-11.05
	c-2.227-7.05-4.458-14.098-7.644-21.063c-0.979,10.464-1.958,20.928-2.993,31.986c-7.746,0-15.345,0.182-22.917-0.184
	c-1.227-0.06-3.036-2.397-3.374-3.943c-1.255-5.756-4.454-7.647-10.2-6.952c-4.433,0.536-9.004,0.38-13.472,0.021
	c-3.652-0.293-5.766,0.924-6.312,4.478c-0.836,5.434-3.89,7.188-9.26,6.778c-6.129-0.468-12.325,0.016-18.471-0.32
	c-1.621-0.089-3.663-1.303-4.648-2.637c-3.553-4.813-6.62-9.984-10.134-14.829c-1.028-1.418-2.932-2.202-5.414-3.979
	c0,8.086,0,14.535,0,21.275c-6.353,0-12.403,0-18.974,0c0-3.372,0-6.584,0-10.296c-22.04,22.647-56.429,10.372-61.813-15.611
	c-2.127,1.397-4.164,2.734-6.493,4.265c5.167,7.113,10.263,14.129,15.93,21.931c-7.403,0-13.831,0.15-20.241-0.128
	c-1.264-0.055-2.773-1.533-3.627-2.739c-3.459-4.887-6.612-9.99-10.095-14.859c-0.963-1.347-2.673-2.161-5.097-4.037
	c0,8.095,0,14.534,0,21.912c-5.759,0-11.164,0.012-16.568-0.002c-16.985-0.042-33.971-0.176-50.956-0.063
	c-3.034,0.02-4.836-0.838-6.375-3.471c-3.326-5.694-6.986-11.192-10.861-17.326c-3.922,6.186-7.433,11.982-11.255,17.565
	c-0.96,1.403-2.917,3.006-4.427,3.018c-17.477,0.135-34.956-0.019-52.434-0.096C34.908,147.65,34.558,147.321,34.208,146.992z
	 M77.814,97.817c-0.53,0.443-1.06,0.886-1.589,1.329c-7.735,0-15.471,0-23.123,0c0,3.313,0,5.583,0,8.374c6.85,0,13.426,0,19.839,0
	c0,5.452,0,10.37,0,15.574c-6.755,0-13.2,0-19.882,0c0,2.718,0,5.141,0,7.902c3.197,0,6.166,0.001,9.134,0
	c5.62-0.002,12.325,1.895,16.564-0.526c4.499-2.569,6.658-9.236,9.838-14.114c0.272-0.418,0.737-0.823,0.772-1.263
	c0.083-1.016,0.331-2.282-0.143-3.037c-3.182-5.074-6.53-10.043-9.893-15C79.29,96.995,78.34,97.55,77.814,97.817z M279.375,100.59
	c-3.936,1.03-7.402,2.169-10.961,2.761c-1.491,0.248-3.528-0.208-4.713-1.125c-6.214-4.806-12.936-5.696-19.01-2.166
	c-6.261,3.639-9.597,11.014-8.313,18.379c1.248,7.157,8.512,14.215,15.134,14.705c5.687,0.421,12.416-3.993,14.874-10.125
	c-5.897,0-11.617,0-17.369,0c0-4.905,0-9.309,0-14.029c10.213,0,20.156,0,30.357,0C279.375,106.223,279.375,103.776,279.375,100.59z
	 M129.911,134.523c0-14.19,0-27.398,0-41.491c-4.871,7.411-9.214,14.021-13.564,20.64
	C120.831,120.567,125.128,127.173,129.911,134.523z M298.784,98.049c0,4.941,0,9.327,0,13.911c3.746,0,7.225,0.249,10.652-0.065
	c3.96-0.362,6.377-2.693,6.386-6.858c0.009-4.157-2.393-6.526-6.339-6.917C306.056,97.781,302.568,98.049,298.784,98.049z
	 M188.193,111.975c3.782,0,7.087,0.217,10.351-0.056c3.897-0.326,6.509-2.408,6.643-6.607c0.141-4.423-2.403-6.801-6.541-7.206
	c-3.393-0.333-6.845-0.068-10.454-0.068C188.193,102.772,188.193,107.156,188.193,111.975z M168.967,107.057
	c0-2.505,0-4.803,0-7.371c-1.436-0.102-2.733-0.266-4.031-0.273c-5.132-0.03-10.265-0.012-15.333-0.012
	c-1.014,8.601-1.012,8.678,6.913,8.498C160.481,107.807,164.44,107.375,168.967,107.057z M168.922,123.25
	c-6.799,0-13.053,0-19.483,0c0,2.608,0,4.991,0,7.441c6.623,0,12.997,0,19.483,0C168.922,128.118,168.922,125.854,168.922,123.25z
	 M368.155,122.929c-2.405-6.17-4.672-11.982-7.303-18.728c-2.591,6.881-4.764,12.65-7.053,18.728
	C358.866,122.929,363.153,122.929,368.155,122.929z"/>
<g display="none">
	<path display="inline" fill-rule="evenodd" clip-rule="evenodd" fill="#F97E03" d="M34.244,157.869c0-22.321,0-43.929,0-66.099
		c3,0,5.784,0,8.567,0c14.998,0,29.997,0.095,44.992-0.078c3.074-0.035,4.851,0.918,6.343,3.552
		c2.77,4.888,5.872,9.589,9.257,15.048c3.379-5.447,6.508-10.259,9.38-15.22c1.397-2.415,3.015-3.391,5.925-3.376
		c26.828,0.128,53.658,0.031,80.486,0.105c10.256,0.028,19.015,3.047,23.658,13.3c17.833-20.801,42.645-17.882,56.585-2.525
		c0-3.75,0-6.94,0-11.319c13.625,0.566,26.752,0.398,39.684,1.909c8.17,0.954,13.602,6.965,15.082,15.379
		c1.692,9.614-0.297,18.245-8.247,24.747c-1.14,0.932-2.429,1.682-3.986,2.747c2.412,3.311,4.71,6.465,7.526,10.331
		c5.44-13.091,10.576-25.441,15.706-37.793c1.914-4.61,3.616-9.326,5.842-13.78c0.685-1.371,2.739-2.823,4.238-2.904
		c14.342-0.779,14.34-0.694,19.838,12.569c3.378,8.147,6.771,16.288,10.185,24.42c0.102,0.242,0.495,0.361,1.191,0.836
		c1.241-12.625,2.458-24.992,3.731-37.939c5.803,0,11.421-0.209,17,0.168c1.184,0.08,2.658,2.121,3.258,3.565
		c4.778,11.516,9.379,23.106,14.385,35.549c4.74-11.863,9.356-22.858,13.482-34.034c1.498-4.058,3.4-5.84,7.872-5.356
		c4.255,0.461,8.599,0.099,13.276,0.099c2.098,22.067,4.157,43.74,6.252,65.78c-6.392,0-12.313,0-18.855,0
		c-0.988-10.388-1.984-20.857-2.979-31.326c-0.32-0.076-0.641-0.151-0.96-0.227c-1.094,3.332-2.206,6.657-3.275,9.996
		c-1.167,3.646-2.283,7.308-3.439,10.956c-3.889,12.273-3.901,12.353-16.883,10.796c-1.27-0.152-2.921-1.882-3.383-3.228
		c-2.975-8.654-5.662-17.406-8.46-26.121c-0.266-0.828-0.646-1.619-1.752-2.31c-0.985,10.482-1.972,20.966-2.988,31.786
		c-7.718,0-15.037,0.214-22.322-0.185c-1.427-0.078-3.562-2.336-3.929-3.922c-1.331-5.758-4.526-7.861-10.271-6.938
		c-2.438,0.392-5.023,0.329-7.482,0.016c-7.129-0.908-12.662,0.296-14.05,8.739c-0.154,0.938-2.363,2.154-3.648,2.189
		c-7.489,0.208-14.994,0.265-22.478-0.028c-1.592-0.063-3.588-1.443-4.592-2.809c-3.549-4.824-6.648-9.978-10.146-14.841
		c-0.951-1.322-2.708-2.063-5.209-3.882c0,8.136,0,14.556,0,21.316c-6.48,0-12.514,0-18.995,0c0-3.317,0-6.397,0-10.693
		c-10.383,11.081-22.193,15.146-35.872,11.58c-13.706-3.573-22.188-12.787-26.03-26.711c-2.167,1.438-4.192,2.783-6.446,4.28
		c5.163,7.083,10.206,14.002,15.946,21.877c-7.494,0-13.899,0.153-20.285-0.13c-1.268-0.057-2.772-1.57-3.635-2.789
		c-3.463-4.891-6.616-10-10.113-14.865c-0.937-1.304-2.684-2.025-5.18-3.82c0,8.164,0,14.6,0,21.814
		c-5.394,0-10.338,0.014-15.281-0.003c-17.658-0.06-35.318-0.049-52.973-0.321c-1.729-0.026-4.022-1.405-5.041-2.864
		c-3.873-5.544-7.33-11.378-11.322-17.704c-3.969,6.249-7.506,12.031-11.303,17.637c-0.896,1.322-2.657,2.908-4.037,2.923
		C70.29,157.936,52.491,157.869,34.244,157.869z M53.026,140.671c3.562,0,6.548,0.038,9.532-0.009
		c5.573-0.087,12.158,1.573,16.437-0.839c4.367-2.462,6.469-8.942,9.563-13.665c0.182-0.277,0.512-0.546,0.526-0.832
		c0.067-1.32,0.559-2.959-0.028-3.915c-3.188-5.191-6.65-10.214-9.441-14.425c-2.216,0.834-3.864,1.951-5.545,2.001
		c-6.92,0.205-13.85,0.086-21.019,0.086c0,2.838,0,5.083,0,7.909c6.787,0,13.337,0,19.98,0c0,5.487,0,10.389,0,15.828
		c-6.79,0-13.332,0-20.006,0C53.026,135.62,53.026,137.886,53.026,140.671z M249.181,132.571c0-4.813,0-9.2,0-14.063
		c10.256,0,20.179,0,30.135,0c0-2.912,0-5.335,0-8.19c-3.758,0.969-7.086,2.09-10.504,2.594c-1.662,0.245-3.901-0.146-5.181-1.144
		c-5.675-4.428-11.71-5.689-18.152-2.349c-6.521,3.381-9.591,9.094-9.215,16.418c0.365,7.116,4.013,12.075,10.443,15.192
		c6.749,3.271,18.662-0.702,19.341-8.458C260.425,132.571,254.832,132.571,249.181,132.571z M130.144,102.414
		c-5.068,7.7-9.355,14.213-13.771,20.924c4.403,6.776,8.736,13.444,13.771,21.193C130.144,129.883,130.144,116.815,130.144,102.414z
		 M298.748,121.617c3.868,0,7.366,0.262,10.808-0.068c4.005-0.385,6.378-2.829,6.332-6.987c-0.043-3.913-2.35-6.313-6.093-6.711
		c-3.57-0.38-7.213-0.082-11.047-0.082C298.748,112.443,298.748,116.711,298.748,121.617z M188.375,107.717
		c0,4.904,0,9.281,0,13.933c3.6,0,6.9,0.208,10.163-0.053c3.917-0.314,6.542-2.382,6.683-6.6c0.149-4.453-2.439-6.793-6.579-7.213
		C195.384,107.454,192.065,107.717,188.375,107.717z M149.418,116.703c6.776,0,13.123,0,19.517,0c0-2.627,0-4.878,0-7.388
		c-6.599,0-12.959,0-19.517,0C149.418,111.863,149.418,114.132,149.418,116.703z M168.916,132.977c-6.749,0-13.002,0-19.33,0
		c0,2.657,0,5.029,0,7.426c6.599,0,12.847,0,19.33,0C168.916,137.876,168.916,135.62,168.916,132.977z M360.93,113.872
		c-2.592,6.791-4.794,12.562-7.119,18.654c5.063,0,9.317,0,14.367,0C365.766,126.318,363.527,120.556,360.93,113.872z"/>
</g>
<g>
	<path fill-rule="evenodd" clip-rule="evenodd" fill="#FFFFFF" d="M346.556,142.104c-1.052,4.985-3.921,6.828-9.134,6.383
		c-6.125-0.524-12.334,0-18.486-0.327c-1.633-0.086-3.708-1.242-4.688-2.565c-3.564-4.813-6.637-9.988-10.148-14.843
		c-1.035-1.435-2.908-2.263-5.416-4.123c0,8.111,0,14.555,0,21.324c-6.377,0-12.434,0-18.811,0
		c-0.138-3.001-0.272-5.919-0.466-10.133c-10.517,10.489-22.333,14.647-35.935,10.917c-13.464-3.693-21.892-12.744-25.676-26.629
		c-2.193,1.422-4.323,2.802-6.548,4.245c5.213,7.146,10.279,14.089,15.99,21.915c-7.537,0-14.107,0.13-20.663-0.123
		c-1.111-0.043-2.409-1.537-3.193-2.659c-3.43-4.917-6.611-10.006-10.089-14.886c-0.969-1.36-2.643-2.218-3.994-3.305
		c-0.411,0.271-0.823,0.543-1.234,0.814c0,6.572,0,13.145,0,20.17c-7.658,0-14.782,0-21.907,0c-15.001,0-30.004-0.094-45.005,0.075
		c-3.342,0.037-5.458-0.763-7.184-3.837c-3.149-5.603-6.805-10.922-10.62-16.945c-3.938,6.182-7.458,11.966-11.287,17.538
		c-0.967,1.406-2.914,3.017-4.428,3.034c-17.5,0.2-35.004,0.111-52.507,0.08c-0.297,0-0.594-0.254-1.02-0.449
		c0-21.739,0-43.535,0-65.636c18.703,0,37.187-0.052,55.667,0.116c1.232,0.011,2.812,1.448,3.607,2.638
		c3.314,4.954,6.389,10.067,9.958,15.771c3.497-5.631,6.538-10.874,9.979-15.84c0.921-1.328,3.058-2.562,4.643-2.57
		c27.339-0.15,54.679-0.213,82.018-0.038c9.902,0.063,18.396,3.2,22.805,13.455c17.148-18.616,35.978-20.458,56.548-3.966
		c0.03-0.539,0.062-1.078,0.093-1.616c0.081-1.3,0.188-2.6,0.233-3.901c0.04-1.138,0.009-2.279,0.009-3.014
		c13.269,0,26.237-0.809,39.042,0.288c8.375,0.717,14.037,6.855,15.541,15.491c1.674,9.602-0.285,18.265-8.285,24.743
		c-1.146,0.928-2.456,1.653-4.013,2.685c2.415,3.305,4.729,6.475,7.401,10.131c0.755-1.447,1.393-2.472,1.848-3.572
		c6.432-15.528,12.912-31.036,19.19-46.626c1.206-2.995,2.534-4.333,6.072-4.282c13.399,0.195,13.405,0.03,18.539,12.425
		c3.558,8.588,7.105,17.181,11.566,25.791c1.243-12.558,2.489-25.115,3.753-37.877c6.31,0,12.43,0,18.906,0
		c5.092,12.641,10.242,25.427,15.744,39.093c4.664-11.623,9.299-22.388,13.254-33.396c1.67-4.653,3.796-6.692,8.865-6.027
		c3.922,0.515,7.967,0.103,12.504,0.103c2.102,21.99,4.184,43.791,6.294,65.885c-6.368,0-12.304,0-18.784,0
		c-1.004-9.895-2.014-19.846-3.023-29.797c-0.537-0.039-1.074-0.077-1.611-0.116c-2.121,6.684-4.234,13.372-6.365,20.051
		c-3.236,10.136-3.25,9.891-13.951,10.239c-4.152,0.135-5.738-1.204-6.818-5.085c-2.535-9.113-5.613-18.072-9.432-27.107
		c-1.008,10.558-2.016,21.119-3.061,32.066c-7.788,0-15.305,0.476-22.683-0.328c-1.888-0.205-3.336-4.453-4.987-6.844
		c-0.288-3.029-1.813-4.115-4.954-3.971c-5.796,0.268-11.629,0.355-17.411-0.021C348.82,136.854,346.939,138.306,346.556,142.104z
		 M53.039,123.119c0,2.902,0,5.323,0,7.982c8.764,0,17.241,0,26.001,0c3.638-5.62,7.424-11.469,11.273-17.415
		c-3.876-5.872-7.676-11.63-10.886-16.492c-2.107,0.984-3.502,2.171-4.928,2.21c-7.108,0.196-14.225,0.089-21.383,0.089
		c0,2.908,0,5.273,0,8.004c6.805,0,13.251,0,19.714,0c0,5.423,0,10.462,0,15.621C66.132,123.119,59.806,123.119,53.039,123.119z
		 M248.874,108.934c10.469,0,20.416,0,30.479,0c0-2.893,0-5.415,0-8.26c-3.772,0.978-7.108,2.104-10.536,2.617
		c-1.65,0.248-3.884-0.139-5.15-1.133c-5.669-4.449-11.703-5.704-18.16-2.381c-6.543,3.369-9.604,9.077-9.246,16.408
		c0.349,7.127,3.883,12.322,10.436,15.169c7.992,3.473,16.956-0.262,19.619-8.37c-5.88,0-11.622,0-17.442,0
		C248.874,118.195,248.874,113.872,248.874,108.934z M130.018,92.888c-4.502,6.831-8.406,12.609-12.109,18.513
		c-0.64,1.02-1.041,2.951-0.507,3.825c3.849,6.3,7.966,12.436,12.617,19.573C130.018,120.442,130.018,107.277,130.018,92.888z
		 M298.813,112.033c3.691,0,7.154,0.223,10.576-0.058c3.965-0.326,6.471-2.584,6.521-6.751c0.055-4.4-2.506-6.771-6.703-7.109
		c-3.402-0.274-6.846-0.056-10.395-0.056C298.813,102.931,298.813,107.322,298.813,112.033z M188.272,98.105
		c0,4.918,0,9.309,0,13.898c3.714,0,7.182,0.264,10.591-0.07c3.923-0.385,6.357-2.663,6.355-6.865
		c-0.002-4.198-2.448-6.485-6.352-6.89C195.461,97.826,191.99,98.105,188.272,98.105z M149.357,107.086c6.741,0,13.129,0,19.567,0
		c0-2.572,0-4.845,0-7.369c-6.589,0-12.984,0-19.567,0C149.357,102.193,149.357,104.471,149.357,107.086z M149.339,130.664
		c6.916,0,13.287,0,19.488,0c0-2.674,0-4.934,0-7.267c-6.662,0-13.042,0-19.488,0C149.339,125.981,149.339,128.261,149.339,130.664z
		 M360.992,104.213c-2.582,6.837-4.779,12.655-7.043,18.646c5.063,0,9.469,0,14.285,0
		C365.877,116.79,363.663,111.089,360.992,104.213z"/>
</g>
</svg>
