<?xml version="1.0" encoding="utf-8"?>
<!-- Generator: Adobe Illustrator 16.0.0, SVG Export Plug-In . SVG Version: 6.00 Build 0)  -->
<!DOCTYPE svg PUBLIC "-//W3C//DTD SVG 1.1//EN" "http://www.w3.org/Graphics/SVG/1.1/DTD/svg11.dtd">
<svg version="1.1" id="Layer_1" xmlns="http://www.w3.org/2000/svg" xmlns:xlink="http://www.w3.org/1999/xlink" x="0px" y="0px"
	 width="500px" height="250px" viewBox="0 0 500 250" enable-background="new 0 0 500 250" xml:space="preserve">
<image display="none" overflow="visible" enable-background="new    " width="500" height="250" xlink:href="E506B38D.png"  transform="matrix(0.7499 0 0 0.7499 45 272.4043)">
</image>
<g>
	<path fill="#F97E03" d="M34.244,157.869c0-22.321,0-43.929,0-66.099c3,0,5.784,0,8.567,0c14.998,0,29.997,0.095,44.992-0.078
		c3.074-0.035,4.851,0.918,6.343,3.552c2.77,4.888,5.872,9.589,9.257,15.048c3.379-5.447,6.508-10.259,9.38-15.22
		c1.397-2.415,3.015-3.391,5.925-3.376c26.828,0.128,53.658,0.031,80.486,0.105c10.256,0.028,19.015,3.047,23.658,13.3
		c17.833-20.801,42.645-17.882,56.585-2.525c0-3.75,0-6.94,0-11.319c13.625,0.566,26.752,0.398,39.684,1.909
		c8.17,0.954,13.602,6.965,15.082,15.379c1.69,9.614-0.297,18.245-8.247,24.747c-1.14,0.933-2.429,1.683-3.986,2.747
		c2.412,3.311,4.71,6.465,7.526,10.331c5.438-13.091,10.576-25.441,15.706-37.793c1.914-4.61,3.616-9.326,5.842-13.78
		c0.685-1.371,2.739-2.823,4.238-2.904c14.342-0.779,14.34-0.694,19.838,12.569c3.378,8.147,6.771,16.288,10.185,24.42
		c0.104,0.242,0.495,0.361,1.191,0.836c1.241-12.625,2.458-24.992,3.729-37.939c5.805,0,11.423-0.209,17,0.168
		c1.186,0.08,2.658,2.121,3.26,3.565c4.776,11.516,9.379,23.106,14.385,35.548c4.74-11.862,9.354-22.857,13.48-34.035
		c1.498-4.058,3.4-5.84,7.872-5.356c4.257,0.461,8.601,0.099,13.276,0.099c2.098,22.067,4.157,43.74,6.252,65.78
		c-6.392,0-12.313,0-18.854,0c-0.988-10.388-1.984-20.855-2.979-31.324c-0.32-0.076-0.641-0.151-0.96-0.229
		c-1.094,3.332-2.206,6.656-3.275,9.996c-1.167,3.646-2.281,7.308-3.438,10.956c-3.889,12.272-3.901,12.353-16.883,10.796
		c-1.271-0.152-2.921-1.883-3.383-3.229c-2.977-8.654-5.662-17.406-8.461-26.121c-0.267-0.828-0.646-1.619-1.753-2.311
		c-0.983,10.482-1.972,20.966-2.986,31.786c-7.718,0-15.037,0.214-22.322-0.185c-1.427-0.078-3.562-2.336-3.929-3.922
		c-1.331-5.76-4.526-7.861-10.271-6.938c-2.438,0.392-5.021,0.329-7.48,0.016c-7.129-0.907-12.662,0.296-14.051,8.739
		c-0.153,0.938-2.362,2.154-3.647,2.189c-7.489,0.207-14.994,0.265-22.479-0.028c-1.593-0.063-3.589-1.443-4.593-2.81
		c-3.549-4.824-6.646-9.979-10.146-14.842c-0.95-1.32-2.707-2.063-5.209-3.882c0,8.138,0,14.558,0,21.315
		c-6.479,0-12.514,0-18.994,0c0-3.316,0-6.396,0-10.692c-10.383,11.081-22.193,15.146-35.872,11.58
		c-13.706-3.573-22.188-12.787-26.03-26.711c-2.167,1.438-4.192,2.782-6.446,4.278c5.163,7.084,10.206,14.002,15.946,21.877
		c-7.494,0-13.899,0.154-20.285-0.129c-1.268-0.058-2.772-1.569-3.635-2.789c-3.463-4.892-6.616-10-10.113-14.864
		c-0.937-1.306-2.684-2.025-5.18-3.82c0,8.164,0,14.601,0,21.813c-5.394,0-10.338,0.015-15.281-0.004
		c-17.658-0.06-35.318-0.049-52.973-0.319c-1.729-0.026-4.022-1.405-5.041-2.864c-3.873-5.544-7.33-11.378-11.322-17.704
		c-3.969,6.249-7.506,12.031-11.303,17.638c-0.896,1.321-2.657,2.908-4.037,2.924C70.29,157.936,52.491,157.869,34.244,157.869z
		 M53.026,140.671c3.562,0,6.548,0.038,9.532-0.009c5.573-0.087,12.158,1.572,16.437-0.839c4.367-2.462,6.469-8.942,9.563-13.665
		c0.182-0.277,0.512-0.547,0.526-0.832c0.067-1.32,0.559-2.959-0.028-3.915c-3.188-5.191-6.65-10.214-9.441-14.425
		c-2.216,0.834-3.864,1.951-5.545,2.001c-6.92,0.205-13.85,0.086-21.019,0.086c0,2.838,0,5.083,0,7.909c6.787,0,13.337,0,19.98,0
		c0,5.487,0,10.389,0,15.829c-6.79,0-13.332,0-20.006,0C53.026,135.62,53.026,137.886,53.026,140.671z M249.181,132.57
		c0-4.813,0-9.199,0-14.063c10.256,0,20.178,0,30.135,0c0-2.912,0-5.335,0-8.19c-3.758,0.969-7.086,2.09-10.504,2.594
		c-1.662,0.245-3.901-0.146-5.183-1.144c-5.675-4.428-11.71-5.689-18.152-2.349c-6.521,3.381-9.591,9.094-9.215,16.418
		c0.365,7.116,4.013,12.075,10.443,15.191c6.749,3.271,18.662-0.701,19.341-8.459C260.425,132.57,254.832,132.57,249.181,132.57z
		 M130.144,102.414c-5.068,7.7-9.355,14.213-13.771,20.924c4.403,6.776,8.736,13.444,13.771,21.193
		C130.144,129.883,130.144,116.815,130.144,102.414z M298.748,121.617c3.868,0,7.366,0.262,10.808-0.068
		c4.005-0.385,6.378-2.829,6.332-6.987c-0.043-3.913-2.35-6.313-6.093-6.711c-3.57-0.38-7.213-0.082-11.047-0.082
		C298.748,112.443,298.748,116.711,298.748,121.617z M188.375,107.717c0,4.904,0,9.281,0,13.933c3.6,0,6.9,0.208,10.163-0.053
		c3.917-0.314,6.542-2.382,6.683-6.6c0.149-4.453-2.439-6.793-6.579-7.213C195.384,107.454,192.065,107.717,188.375,107.717z
		 M149.418,116.703c6.776,0,13.123,0,19.517,0c0-2.627,0-4.878,0-7.388c-6.599,0-12.959,0-19.517,0
		C149.418,111.863,149.418,114.132,149.418,116.703z M168.916,132.977c-6.749,0-13.002,0-19.33,0c0,2.657,0,5.029,0,7.426
		c6.599,0,12.847,0,19.33,0C168.916,137.876,168.916,135.62,168.916,132.977z M360.93,113.872
		c-2.592,6.791-4.794,12.562-7.119,18.653c5.063,0,9.317,0,14.367,0C365.766,126.318,363.527,120.556,360.93,113.872z"/>
</g>
</svg>
